<?xml version="1.0" encoding="utf-8"?>
<!-- Generator: Adobe Illustrator 19.0.0, SVG Export Plug-In . SVG Version: 6.00 Build 0)  -->
<svg version="1.1" id="Isolation_Mode" xmlns="http://www.w3.org/2000/svg" xmlns:xlink="http://www.w3.org/1999/xlink" x="0px"
	 y="0px" viewBox="736 213 2272.2 375" style="enable-background:new 736 213 2272.2 375;" xml:space="preserve">
<style type="text/css">
	.st0{fill:#FFFFFF;}
</style>
<g>
	<g>
		<path class="st0" d="M1420.2,541.2c-15.1,16.3-35,23.5-54.6,23.5c-20.9,0-41.1-8.6-55.6-25c-15-17.4-19-38.3-19-54.4V296.6
			c0-15.6,3.6-36.8,18.7-54.5c15-17.1,35.6-24.9,55.8-24.9c19.8,0,39.9,7.2,55.1,24c16.6,18.1,19.8,39.9,19.8,55.4v188.7
			C1440.6,501.4,1436.9,523.3,1420.2,541.2z"/>
	</g>
	<g>
		<path class="st0" d="M2052.5,486.8c-4.9,17.3-11,33.1-18.7,45.7c-15.1,24.1-40.3,31.9-62.6,31.9c-12.3,0-25.3-2.4-37.5-9.3
			c-11.1-6.1-19.8-14.8-26.2-24.6c-5.1-8-9.5-17.2-12.8-26.4l-6.1-17.3L1835.9,331c-5-13.8-10-29.7-10-43c0-18.7,7.9-34.7,19.8-46.6
			c13.2-13.2,30.1-19.8,48.2-19.8c16.9,0,41.1,4.9,55.3,27.8c6.9,11,12.1,25.8,16.5,40.9l4.3,14.8l1.3-4.5c4.5-15.5,8-26.4,10.1-32
			c4.9-12.5,13.2-22.7,22.3-30.5c14.6-12.5,32.2-16.6,48.1-16.6c15.6,0,33.5,3.6,48.4,16.8c9.4,7.9,17.3,17.7,22.3,30.2
			c2.5,6.2,6.1,16.9,10.6,32.1l1.5,5.3l4.6-15.5c3.3-12,5.9-20.2,7.9-25.5c4.2-11.5,11.1-20.8,20-28.4
			c13.9-12.1,30.3-14.9,43.4-14.9c17.9,0,34.3,6.6,47.2,18.8c12.9,12.1,20.9,28.6,20.9,47.6c0,14-4.6,29.4-9.7,43.5L2216,486.8
			c-5,14.4-9,24.9-11.8,31.3c-5.3,12.2-13.3,22.2-23,30.3c-14.6,12.4-32.1,16-47.5,16c-16.4,0-34.4-4.4-49.2-17.1
			c-10.4-9.2-18.4-20.8-23.3-33.8C2058.4,506.5,2055.6,497.6,2052.5,486.8z"/>
	</g>
	<g>
		<g>
			<path class="st0" d="M790.8,293.3c-0.2-14,10.9-25.5,24.9-25.8c14-0.3,25.5,10.9,25.8,24.9c0.2,14-10.9,25.5-24.9,25.8
				C802.6,318.4,791,307.3,790.8,293.3z"/>
		</g>
		<g>
			<g>
				<g>
					<g>
						<path class="st0" d="M1060.7,295.5c0.5,30.6,25.8,55,56.4,54.5s55-25.8,54.5-56.4s-25.8-55-56.4-54.5
							S1060.2,264.8,1060.7,295.5z M760.8,295.5c0.5,30.6,25.8,55,56.4,54.5c30.6-0.5,55-25.8,54.5-56.4s-25.8-55-56.4-54.5
							C784.7,239.6,760.3,264.8,760.8,295.5z M966.6,351.6l79.6-102c72.2-90.2,202.7,2.9,129.1,100.7l-51.9,65.4
							c-13.7,18.6-59.3,80.1-95,120c-19.6,21.9-81.2,43-120.9,2.1l-12.8-13.2c-19.7-21.9-42.4-51.8-58.5-73.9l-78.9-99.6
							c-72.5-92.8,57.6-191.1,128.4-101.6l79.9,100.9L966.6,351.6z"/>
					</g>
				</g>
			</g>
			<g>
				<path class="st0" d="M1093.8,293.4c-0.2-14,10.9-25.5,24.9-25.8c14-0.2,25.5,10.9,25.8,24.9c0.2,14-10.9,25.5-24.9,25.8
					C1105.6,318.6,1094.1,307.4,1093.8,293.4z"/>
			</g>
		</g>
	</g>
	<g>
		<path class="st0" d="M2848.5,272.9c9.8-14.2,19.3-26.4,19.3-26.4c32.1-40.2,79.8-40.6,110.6-17.6c31.5,23.5,43,69.5,10.7,112.3
			l-36.3,45.7c-7.5,10.2-26.4,35.7-45.9,59.6l-77.6,106.8c-9.5,13.1-25.3,28.6-49.4,33.3c-21.8,4.3-42.1-1.6-58-13.1
			c-16.9-12.3-28.2-31.1-30.3-52.9c-1.9-22.9,7.2-42.1,16.7-55.2l26.5-36.5c-5-6.5-9.6-12.7-13.7-18.2l-54.4-68.7
			c-32.6-41.7-19.8-87.5,10.7-111.1c30.2-23.4,77.8-25,110,15.6l43.6,55C2835.5,292.4,2842.4,281.8,2848.5,272.9z"/>
	</g>
	<g>
		<path class="st0" d="M1742.4,480.5c10.7,10,15.5,23.1,15.5,36.1c0,13.8-5.7,27.1-16.5,36.7c-11.5,9.9-25.3,12.5-36,12.5h-93.6
			c-4.2,0-8.9-0.4-13.9-1.5c-18.1-1.9-35.1-10.2-47.8-24.6c-15-17.4-19-38.3-19-54.4V296.6c0-15.6,3.6-36.8,18.7-54.5
			c13.5-15.2,31.2-23.1,49.2-24.7c2.5-0.3,4.9-0.4,7.1-0.4h93.6c10.7,0,25.1,2.4,37,13.5c10.7,10,15.5,23.1,15.5,36.1
			c0,13.8-5.7,27.1-16.5,36.7c-11.5,9.9-25.3,12.5-36,12.5h-19v26.9h28.8c10.7,0,25.1,2.4,37,13.5c10.7,10,15.5,23.1,15.5,36.1
			c0,13.8-5.7,27.1-16.5,36.7c-11.5,9.9-25.3,12.5-36,12.5h-28.8V467h24.7C1716,467,1730.5,469.5,1742.4,480.5z"/>
	</g>
	<g>
		<path class="st0" d="M2370.7,556c-16.3-15.1-23.5-35-23.5-54.6c0-2.7,0.1-5.4,0.4-8c-0.2-2.8-0.3-5.5-0.3-8.1V296.6
			c0-15.6,3.6-36.8,18.7-54.5c15-17.1,35.6-24.9,55.8-24.9c19.8,0,39.9,7.2,55.1,24c16.6,18.1,19.8,39.9,19.8,55.4V427h33.8
			c15.6,0,36.8,3.6,54.5,18.7c17.1,15,24.9,35.6,24.9,55.8c0,19.8-7.2,39.9-24,55.1c-18.1,16.6-39.9,19.8-55.4,19.8h-103.9
			C2410.6,576.4,2388.7,572.7,2370.7,556z"/>
	</g>
</g>
</svg>
