<?xml version="1.0" encoding="utf-8"?>
<!-- Generator: Adobe Illustrator 19.0.0, SVG Export Plug-In . SVG Version: 6.00 Build 0)  -->
<svg version="1.1" id="Layer_1" xmlns="http://www.w3.org/2000/svg" xmlns:xlink="http://www.w3.org/1999/xlink" x="0px" y="0px"
	 viewBox="0 0 150 150" style="enable-background:new 0 0 150 150;" xml:space="preserve">
<style type="text/css">
	.st0{fill:#fff;}
</style>
<path id="XMLID_29_" class="st0" d="M75,0C33.6,0,0,33.6,0,75s33.5,75,74.9,75c0,0,0,0,0,0v-49H59V82h16V68.1
	c0-16.1,9.5-24.8,23.8-24.8c6.9,0,13.2,0.5,14.2,0.7v16.8l-9.8,0c-7.8,0-9.2,3.7-9.2,9.2v12h19.2l-2.4,19H94v46.4
	c32-8.6,55.8-37.8,55.8-72.4C149.8,33.6,116.5,0,75,0z"/>
</svg>
