<?xml version="1.0" encoding="utf-8"?>
<!-- Generator: Adobe Illustrator 19.0.0, SVG Export Plug-In . SVG Version: 6.00 Build 0)  -->
<svg version="1.1" id="Layer_1" xmlns="http://www.w3.org/2000/svg" xmlns:xlink="http://www.w3.org/1999/xlink" x="0px" y="0px"
	 viewBox="0 0 150 150" style="enable-background:new 0 0 150 150;" xml:space="preserve">
<style type="text/css">
	.st0{fill:#fff;}
</style>
<g id="XMLID_3_">
	<path id="XMLID_4_" class="st0" d="M103.2,42.1c-0.7,0-7.8,0-10.7,0c-0.9,0-1.6,0.6-1.8,1.4c-0.1,0.3-0.1,10.7-0.1,10.7
		c0,1.5,0.8,2.4,2.1,2.4l9.9,0c1.6,0,2.6-0.8,2.6-2.6l-0.1-10.1C105,42.9,104.2,42.1,103.2,42.1z"/>
	<path id="XMLID_11_" class="st0" d="M75.1,0C33.6,0,0,33.6,0,75.1c0,41.5,33.6,75.1,75.1,75.1c41.5,0,75.1-33.6,75.1-75.1
		C150.2,33.6,116.6,0,75.1,0z M115,101.3c0,0.2-0.1,0.4-0.1,0.6c0,1.7-0.2,3.4-0.8,5.1c-1.4,3.7-3.9,6.5-7.8,7.6
		c-0.6,0.2-1.2,0.4-1.8,0.4c-18,0-36,0-53.9,0c-0.1,0-0.2-0.2-0.3-0.2c-2-0.2-3.8-0.8-5.6-1.8c-3.7-2-6.3-5-7.3-9.1
		c-0.1-0.6-0.4-1.2-0.4-1.7c0-1,0-2.1,0-3.1c0-0.2,0.1-0.4,0.1-0.5c0-1.8,0-3.6,0-5.4c0-8.7-0.1-17.4-0.1-26c0,0,0,0,0,0
		c7,0,14,0,20.9,0c0,0,0,0,0,0c0-0.1,0.1-0.1,0.1-0.2c0,0,0,0.2,0,0.2c0,0-0.1,0-0.1,0c-0.9,2.5-1.6,4.9-1.9,7.5
		c-0.4,3.4-0.1,6.6,1.1,9.8c2.2,5.5,6.1,9.3,11.3,11.9c6.6,3.3,13.2,2.8,19.6-0.7c7.2-4.1,10.9-10.4,11.2-18.7
		c0.1-3.2-0.7-5.9-1.9-8.8C97,67.5,96.9,67,96.7,67c6,0,12,0,18,0c0.1,0,0.3,0.3,0.3,0.7C115,78.9,115,90.1,115,101.3z M60.1,76.7
		c0-9.7,7.7-17.5,17.3-17.5c9.8,0,17.4,7.6,17.4,17.6c0,9.4-7.8,17.1-17.3,17.2C68,93.9,60.1,86.1,60.1,76.7z M115,58
		c0,1.1-0.2,2-0.2,3c-0.2,0-0.3,0-0.5,0c-6.2,0-12.5,0.2-18.7,0.2c-1.7,0-3.1-0.4-4.4-1.4c-6.4-5-13.4-6.3-21.1-3.6
		c-2.5,0.9-4.8,2.3-6.8,4c-0.8,0.7-1.6,1.1-2.7,1.1c-7.3,0-14.6,0-21.8,0c-0.4,0-0.9-0.1-1.4-0.1c0-0.7,0-1.4,0-2.1
		c0-3.1-0.1-6.2,0-9.3c0-1.4,0.2-2.8,0.8-4.2c1.9-4.2,5.2-6.9,9.5-8.2c0.8-0.2,1.7-0.6,2.6-0.6c18.1,0,36.2,0,54.3,0
		c0.1,0,0.3,0.2,0.4,0.2c1.1,0.1,2.3,0.5,3.3,1c4,2,6,5.3,6.6,9.6c0.1,0.7,0.2,1.5,0.2,2.3C115,52.7,115,55.3,115,58z"/>
</g>
</svg>
