<?xml version="1.0" encoding="utf-8"?>
<!-- Generator: Adobe Illustrator 19.0.0, SVG Export Plug-In . SVG Version: 6.00 Build 0)  -->
<svg version="1.1" id="Layer_1" xmlns="http://www.w3.org/2000/svg" xmlns:xlink="http://www.w3.org/1999/xlink" x="0px" y="0px"
	 viewBox="0 0 150 150" style="enable-background:new 0 0 150 150;" xml:space="preserve">
<style type="text/css">
	.st0{fill:#fff;}
</style>
<path id="XMLID_32_" class="st0" d="M75,0C33.6,0,0,33.6,0,75c0,41.4,33.6,75,75,75s75-33.6,75-75C150,33.6,116.4,0,75,0z
	 M107.3,58.5c0,0.7,0,1.4,0,2.2c0,22-16.7,47.3-47.3,47.3c-9.4,0-18.1-2.8-25.5-7.5c1.3,0.2,2.6,0.2,4,0.2c7.8,0,15-2.7,20.6-7.1
	c-7.3-0.1-13.4-4.9-15.5-11.5c1,0.2,2.1,0.3,3.1,0.3c1.5,0,3-0.2,4.4-0.6c-7.6-1.5-13.3-8.2-13.3-16.3c0-0.1,0-0.1,0-0.2
	c2.2,1.2,4.8,2,7.5,2.1c-4.5-3-7.4-8.1-7.4-13.8c0-3,0.8-5.9,2.3-8.4c8.2,10.1,20.4,16.7,34.3,17.4C74.1,61.3,74,60,74,58.7
	c0-9.2,7.4-16.6,16.6-16.6c4.8,0,9.1,2,12.1,5.2c3.8-0.7,7.3-2.1,10.6-4c-1.2,3.9-3.9,7.1-7.3,9.2c3.4-0.4,6.6-1.3,9.5-2.6
	C113.3,53.2,110.5,56.2,107.3,58.5z"/>
</svg>
