<?xml version="1.0" encoding="utf-8"?>
<!-- Generator: Adobe Illustrator 19.0.0, SVG Export Plug-In . SVG Version: 6.00 Build 0)  -->
<svg version="1.1" id="Layer_1" xmlns="http://www.w3.org/2000/svg" xmlns:xlink="http://www.w3.org/1999/xlink" x="0px" y="0px"
	 viewBox="-404 206 150 150" style="enable-background:new -404 206 150 150;" xml:space="preserve">
<style type="text/css">
	.st0{fill:#377d72;}
</style>
<path class="st0" d="M-329,206c-41.4,0-75,33.6-75,75s33.6,75,75,75s75-33.6,75-75S-287.6,206-329,206z M-351,325
	C-351,325-351,325.1-351,325l-23.9,0.1c0,0-0.1,0-0.1-0.1v-45.8c0,0,0-0.1,0.1-0.1h23.8l0.1,0.1V325z M-287.5,296.6l-2.9,0.9
	l1.8,2.4c0.9,1.1,1.3,2.4,1.3,3.8c0,3.1-2.2,5.7-5.2,6.2l-2.9,0.5l1.3,2.6c0.5,0.9,0.7,1.9,0.7,2.9c0,3.3-2.6,6.1-5.9,6.3h-36.2
	c-0.1,0-4.5-0.1-7.7-2.8c-0.7-0.6-1.3-1-2-1.3l-0.8-0.4v-33.5l3.8-3.2l12.7-23.6c0.5-1,0.9-2,1.2-3c0.3-1.1,0.4-2.2,0.3-3.3l-1-13.4
	c0.9-0.5,1.9-0.8,2.9-0.8c5.5,0,10.2,8.8,10.2,16c0,1-0.1,1.9-0.2,2.9l-2.2,14.2h27.7c1.8,0,3.5,0.9,4.8,2.2
	c1.2,1.2,1.8,2.8,1.8,4.4c0,2-0.9,3.8-2.5,5l-2.6,2l2.8,1.6c2,1.1,3.2,3.2,3.2,5.4C-283,293.4-284.8,295.8-287.5,296.6z"/>
</svg>
